<?xml version="1.0" encoding="utf-8"?>
<!-- Generator: Adobe Illustrator 19.1.0, SVG Export Plug-In . SVG Version: 6.00 Build 0)  -->
<svg version="1.2" baseProfile="tiny" id="Layer_1" xmlns="http://www.w3.org/2000/svg" xmlns:xlink="http://www.w3.org/1999/xlink"
	 x="0px" y="0px" viewBox="0 0 320 80" xml:space="preserve">
<g>
	<path fill="#2081C4" d="M91.4,53.2l3.3,5.3l3.3-5.3H99l-3.9,6.2v3.7h-1v-3.7l-3.8-6.2H91.4z"/>
	<path fill="#2081C4" d="M100,58.2c0-2.6,2-5,4.7-5c2.8,0,4.6,2.6,4.6,5.1c0,2.6-2,5-4.7,5C101.9,63.2,100,60.8,100,58.2z
		 M104.7,62.4c2.3,0,3.7-2.1,3.7-4.2c0-2.2-1.5-4.1-3.7-4.1c-2.3,0-3.7,2.1-3.7,4.1C101,60.4,102.5,62.4,104.7,62.4z"/>
	<path fill="#2081C4" d="M119.5,58.3v-5h1v5c0,2.7-1.1,5-4.2,5c-3.2,0-4.2-2.5-4.2-5v-5h1v5c0,2.1,0.7,4.1,3.2,4.1
		C118.8,62.4,119.5,60.3,119.5,58.3z"/>
	<path fill="#2081C4" d="M124,63.2v-9.9h4.2c1.7,0,3,1.6,3,3.1c0,1.4-0.9,2.7-2.2,3l2.4,3.8h-1.1l-2.3-3.7h-2.9v3.7H124z
		 M124.9,58.6h3.3c1.2,0,1.9-1.1,1.9-2.3c0-1.2-0.9-2.3-2-2.3h-3.2V58.6z"/>
	<path fill="#2081C4" d="M145.5,62.3v0.9h-6.7v-9.9h6.5v0.9h-5.6v3.6h4.9v0.8h-4.9v3.8H145.5z"/>
	<path fill="#2081C4" d="M152.2,53.2c1.8,0,3.1,0.9,3.7,2.2l-0.8,0.5c-0.6-1.3-1.9-1.8-2.9-1.8c-2.4,0-3.7,2.1-3.7,4.1
		c0,2.2,1.6,4.2,3.7,4.2c1.1,0,2.4-0.6,3.1-1.8L156,61c-0.6,1.5-2.4,2.3-3.9,2.3c-2.7,0-4.6-2.6-4.6-5.1
		C147.4,55.7,149.2,53.2,152.2,53.2z"/>
	<path fill="#2081C4" d="M158,58.2c0-2.6,2-5,4.7-5c2.8,0,4.6,2.6,4.6,5.1c0,2.6-2,5-4.7,5C159.9,63.2,158,60.8,158,58.2z
		 M162.6,62.4c2.3,0,3.7-2.1,3.7-4.2c0-2.2-1.5-4.1-3.7-4.1c-2.3,0-3.7,2.1-3.7,4.1C159,60.4,160.5,62.4,162.6,62.4z"/>
	<path fill="#2081C4" d="M179.1,63.2V55l-3.6,6.3h-0.6l-3.6-6.3v8.2h-1v-9.9h1l3.9,6.8l3.9-6.8h1v9.9H179.1z"/>
	<path fill="#2081C4" d="M192.4,63.2V55l-3.6,6.3h-0.6l-3.6-6.3v8.2h-1v-9.9h1l3.9,6.8l3.9-6.8h1v9.9H192.4z"/>
	<path fill="#2081C4" d="M203.6,62.3v0.9H197v-9.9h6.5v0.9h-5.6v3.6h4.9v0.8h-4.9v3.8H203.6z"/>
	<path fill="#2081C4" d="M206.3,63.2v-9.9h4.2c1.7,0,3,1.6,3,3.1c0,1.4-0.9,2.7-2.2,3l2.4,3.8h-1.1l-2.3-3.7h-2.9v3.7H206.3z
		 M207.2,58.6h3.3c1.2,0,1.9-1.1,1.9-2.3c0-1.2-0.9-2.3-2-2.3h-3.2V58.6z"/>
	<path fill="#2081C4" d="M220.5,53.2c1.8,0,3.1,0.9,3.7,2.2l-0.8,0.5c-0.6-1.3-1.9-1.8-2.9-1.8c-2.4,0-3.7,2.1-3.7,4.1
		c0,2.2,1.6,4.2,3.7,4.2c1.1,0,2.4-0.6,3.1-1.8l0.8,0.4c-0.6,1.5-2.4,2.3-3.9,2.3c-2.7,0-4.6-2.6-4.6-5.1
		C215.8,55.7,217.5,53.2,220.5,53.2z"/>
	<path fill="#2081C4" d="M233.8,62.3v0.9h-6.7v-9.9h6.5v0.9H228v3.6h4.9v0.8H228v3.8H233.8z"/>
	<path fill="#2081C4" d="M241.3,63.2v-9.9h4.2c1.7,0,3,1.6,3,3.1c0,1.4-0.9,2.7-2.2,3l2.4,3.8h-1.1l-2.3-3.7h-2.9v3.7H241.3z
		 M242.3,58.6h3.3c1.2,0,1.9-1.1,1.9-2.3c0-1.2-0.9-2.3-2-2.3h-3.2V58.6z"/>
	<path fill="#2081C4" d="M258.3,62.3v0.9h-6.7v-9.9h6.5v0.9h-5.6v3.6h4.9v0.8h-4.9v3.8H258.3z"/>
	<path fill="#2081C4" d="M267,55.1c-0.6-0.6-1.5-1.1-2.7-1.1c-1.8,0-2.5,0.7-2.5,1.8c0,1.2,0.9,1.5,2.8,1.9c2.1,0.4,3.4,1,3.4,2.8
		c0,1.8-1.5,2.7-3.6,2.7c-1.6,0-2.9-0.5-4-1.4l0.5-0.8c0.7,0.8,2,1.4,3.5,1.4c1.6,0,2.5-0.6,2.5-1.7c0-1.2-1-1.6-3-2.1
		c-2.1-0.5-3.2-1-3.2-2.6c0-1.8,1.5-2.9,3.5-2.9c1.3,0,2.3,0.4,3.2,1.1L267,55.1z"/>
	<path fill="#2081C4" d="M277.4,62.3c-0.8,0.6-1.7,1-2.7,1c-2.8,0-4.7-2.5-4.7-5c0-2.6,2-5,4.7-5c2.8,0,4.6,2.6,4.6,5.1
		c0,1.4-0.5,2.6-1.4,3.6l1.2,1.4h-1L277.4,62.3z M276.9,61.6l-1.2-1.5h1l0.8,1c0.7-0.8,1-1.8,1-2.9c0-2.2-1.5-4.2-3.7-4.2
		c-2.3,0-3.7,2.1-3.7,4.2c0,2.2,1.5,4.2,3.7,4.2C275.6,62.4,276.3,62.1,276.9,61.6z"/>
	<path fill="#2081C4" d="M289.6,58.3v-5h1v5c0,2.7-1.1,5-4.2,5c-3.2,0-4.2-2.5-4.2-5v-5h1v5c0,2.1,0.7,4.1,3.2,4.1
		C288.9,62.4,289.6,60.3,289.6,58.3z"/>
	<path fill="#2081C4" d="M300.7,62.3v0.9H294v-9.9h6.5v0.9H295v3.6h4.9v0.8H295v3.8H300.7z"/>
</g>
<g>
	<path fill="#2081C4" d="M30.7,46.8L30.7,46.8c0,1.9,1.6,3.5,3.5,3.5h13.9c1.9,0,3.5-1.6,3.5-3.5v-3.5v-7v-3.5
		c0-1.9-1.6-3.5-3.5-3.5H34.1c-1.9,0-3.5,1.6-3.5,3.5v0c0,1.9,1.6,3.5,3.5,3.5h3.5c1.9,0,3.5,1.6,3.5,3.5v0c0,1.9-1.6,3.5-3.5,3.5
		h-3.5C32.2,43.3,30.7,44.8,30.7,46.8z"/>
	<path fill="#2081C4" d="M16.7,11.9c-1.9,0-3.5,1.6-3.5,3.5v0v7v34.9v3.5v3.5c0,1.9,1.6,3.5,3.5,3.5h48.8c1.9,0,3.5-1.6,3.5-3.5
		v-3.5v-3.5V22.4v-7v0c0-1.9-1.6-3.5-3.5-3.5H16.7z M55.1,57.2H27.2c-1.9,0-3.5-1.6-3.5-3.5V25.8c0-1.9,1.6-3.5,3.5-3.5h27.9
		c1.9,0,3.5,1.6,3.5,3.5v27.9C58.5,55.7,57,57.2,55.1,57.2z"/>
</g>
<g>
	<path fill="#2081C4" d="M138.6,36.8c-1.7,1.8-4.4,2.8-8,2.8c-6.8,0-10.3-3.6-10.3-10.3c0-6.7,3.6-10.3,10.3-10.3
		c3.6,0,6.3,0.9,8,2.8l0.7,0.8l3.2-3.3l-0.6-0.7c-2.6-2.8-6.4-4.2-11.2-4.2c-9.1,0-14.8,5.7-14.8,14.9c0,9.2,5.7,14.9,14.8,14.9
		c4.9,0,8.6-1.4,11.2-4.2l0.6-0.7l-3.2-3.3L138.6,36.8z"/>
	<path fill="#2081C4" d="M159.7,14.3c-9.1,0-14.8,5.7-14.8,14.9c0,9.2,5.7,14.9,14.8,14.9c9.4,0,14.8-5.4,14.8-14.9
		C174.5,19.9,169,14.3,159.7,14.3z M170,29.2c0,6.9-3.4,10.3-10.3,10.3c-6.8,0-10.3-3.6-10.3-10.3c0-6.7,3.6-10.3,10.3-10.3
		C166.6,19,170,22.3,170,29.2z"/>
	<path fill="#2081C4" d="M224,15h-9.9v28.5h9.9c8.6,0,13.6-5.3,13.6-14.5C237.6,20,232.8,15,224,15z M233.1,29
		c0,6.5-3.1,9.9-9.1,9.9h-5.4V19.6h5.4C230.2,19.6,233.1,22.6,233.1,29z"/>
	<polygon fill="#2081C4" points="294,15 283.2,36.8 272.3,15 267.3,15 281.5,43.5 284.9,43.5 299.1,15 	"/>
	<polygon fill="#2081C4" points="193.7,31.2 182.2,15 178.8,15 178.8,43.5 183.3,43.5 183.3,24.4 193.7,39 204,24.4 204,43.5 
		208.5,43.5 208.5,15 205.1,15 	"/>
	<polygon fill="#2081C4" points="94.9,31.8 106.1,31.8 106.1,27.2 94.9,27.2 94.9,19.6 112.8,19.6 112.8,15 90.5,15 90.5,43.5 
		112.8,43.5 112.8,38.9 94.9,38.9 	"/>
	<polygon fill="#2081C4" points="246.2,31.8 257.3,31.8 257.3,27.2 246.2,27.2 246.2,19.6 264,19.6 264,15 241.7,15 241.7,43.5 
		264,43.5 264,38.9 246.2,38.9 	"/>
</g>
</svg>
